# Blender 3.5.0
# www.blender.org
mtllib FloorMissile.mtl
o 立方体
v -0.600731 0.000000 1.080319
v -0.600731 0.000000 -1.080319
v 1.709359 0.000000 0.000000
v -0.884863 0.222003 0.255754
v -0.884863 0.222003 -0.255754
v -0.884863 -0.222003 -0.255754
v -0.884863 -0.222003 0.255754
v -0.884863 -0.598427 0.000000
v -0.884863 0.598427 0.000000
vn -0.9454 -0.0000 0.3258
vn 0.1050 -0.9688 -0.2246
vn -0.1050 -0.9688 0.2246
vn -0.1050 0.9688 0.2246
vn -0.1050 -0.9688 -0.2246
vn -0.9454 -0.0000 -0.3258
vn -0.1286 -0.5573 0.8203
vn -0.0981 -0.0000 0.9952
vn -0.1050 0.9688 -0.2246
vn 1.0000 -0.0000 -0.0000
vn -0.1286 0.5573 -0.8203
vn -0.1286 -0.5573 -0.8203
vn -0.1286 0.5573 0.8203
vt 0.625000 0.000000
vt 0.000000 0.000000
vt 0.125000 0.500000
vt 0.625000 0.250000
vt 0.000000 0.000000
vt 0.375000 0.250000
vt 0.000000 0.000000
vt 0.625000 0.500000
vt 0.375000 0.500000
vt 0.625000 0.062500
vt 0.000000 0.000000
vt 0.625000 0.187500
vt 0.812500 0.625000
vt 0.000000 0.000000
vt 0.375000 0.187500
vt 0.125000 0.562500
vt 0.000000 0.000000
vt 0.375000 0.062500
vt 0.000000 0.000000
vt 0.062500 0.281250
vt 0.000000 0.000000
vt 0.625000 0.125000
vt 0.000000 0.000000
s 0
usemtl Material.001
f 1/1/1 4/10/1 7/18/1
f 2/3/2 3/9/2 6/16/2
f 2/4/3 3/8/3 5/12/3
f 3/7/4 2/5/4 6/17/4
f 4/10/5 3/8/5 1/1/5
f 6/15/6 5/12/6 2/6/6
f 3/8/7 9/22/7 5/12/7
f 3/8/8 5/13/8 6/16/8
f 3/7/9 7/19/9 1/2/9
f 8/21/10 4/11/10 7/19/10
f 3/9/11 8/20/11 7/19/11
f 9/22/12 3/8/12 4/10/12
f 8/20/13 3/9/13 6/16/13
f 8/21/10 5/14/10 9/23/10
f 8/21/10 9/23/10 4/11/10
f 8/21/10 6/17/10 5/14/10
