# Blender 3.5.1
# www.blender.org
mtllib Head.mtl
o 立方体
v -0.581237 -0.606427 0.581237
v -0.581237 -0.354597 0.581237
v -0.581237 -0.606427 -0.581237
v -0.581237 -0.354597 -0.581237
v 0.581237 -0.606427 0.581237
v 0.581237 -0.354597 0.581237
v 0.581237 -0.606427 -0.581237
v 0.581237 -0.354597 -0.581237
v -0.646526 -0.220217 0.646526
v -0.646526 -0.220217 -0.646526
v 0.646526 -0.220217 0.646526
v 0.646526 -0.220217 -0.646526
v -0.130530 -0.074827 0.130530
v -0.130530 -0.074827 -0.130530
v 0.130530 -0.074827 0.130530
v 0.130530 -0.074827 -0.130530
v 0.000000 -0.074827 0.130530
v 0.130530 -0.074827 0.000000
v 0.000000 -0.074827 -0.130530
v -0.130530 -0.074827 0.000000
v 0.000000 1.293221 0.000000
vn -1.0000 -0.0000 -0.0000
vn -0.0000 -0.0000 -1.0000
vn 1.0000 -0.0000 -0.0000
vn -0.0000 -0.0000 1.0000
vn -0.0000 -1.0000 -0.0000
vn -0.8995 -0.4370 -0.0000
vn -0.0000 0.9625 0.2712
vn -0.0000 -0.4370 0.8995
vn -0.0000 -0.4370 -0.8995
vn 0.8995 -0.4370 -0.0000
vn -0.0000 1.0000 -0.0000
vn -0.0000 0.9625 -0.2712
vn 0.2712 0.9625 -0.0000
vn -0.2712 0.9625 -0.0000
vn -0.7055 0.0673 0.7055
vn -0.7055 0.0673 -0.7055
vn 0.7055 0.0673 -0.7055
vn 0.7055 0.0673 0.7055
vt 0.781479 0.818446
vt 0.730595 0.544355
vt 0.721392 0.870907
vt 0.730595 0.352200
vt 0.775322 0.793238
vt 0.727448 0.736956
vt 0.807170 0.814439
vt 0.922750 0.544355
vt 0.855043 0.870721
vt 0.801013 0.789231
vt 0.922750 0.352200
vt 0.861099 0.736770
vt 0.649108 0.940044
vt 0.183928 0.448241
vt 0.649108 0.655191
vt 0.182975 0.761705
vt 0.933383 0.952486
vt 0.502015 0.445097
vt 0.933383 0.667633
vt 0.502015 0.765730
vt 0.074126 0.077777
vt 0.307332 0.570322
vt 0.068482 0.232604
vt 0.307804 0.640042
vt 0.072245 0.129386
vt 0.377920 0.569832
vt 0.070364 0.180995
vt 0.378089 0.641343
vt 0.342095 0.566737
vt 0.075816 0.051956
vt 0.073553 0.155229
vt 0.381229 0.605597
vt 0.071672 0.206838
vt 0.073935 0.103565
vt 0.342626 0.644564
vt 0.069791 0.258447
vt 0.072053 0.155175
vt 0.075435 0.103620
vt 0.304654 0.605842
vt 0.070172 0.206784
vt 0.964466 0.084351
vt 0.958822 0.239179
vt 0.960703 0.187570
vt 0.962585 0.135960
s 0
usemtl マテリアル
f 2/3/1 3/5/1 1/1/1
f 4/6/2 7/10/2 3/5/2
f 8/12/3 5/7/3 7/10/3
f 6/9/4 1/1/4 5/7/4
f 7/11/5 1/2/5 3/4/5
f 2/3/6 10/15/6 4/6/6
f 11/18/7 15/26/7 17/29/7
f 6/9/8 9/13/8 2/3/8
f 4/6/9 12/19/9 8/12/9
f 8/12/10 11/17/10 6/9/10
f 17/30/11 20/38/11 13/21/11
f 10/16/12 14/24/12 19/35/12
f 12/20/13 16/28/13 18/32/13
f 9/14/14 13/22/14 20/39/14
f 20/40/11 19/36/11 14/23/11
f 19/37/11 18/33/11 16/27/11
f 18/34/11 17/31/11 15/25/11
f 2/3/1 4/6/1 3/5/1
f 4/6/2 8/12/2 7/10/2
f 8/12/3 6/9/3 5/7/3
f 6/9/4 2/3/4 1/1/4
f 7/11/5 5/8/5 1/2/5
f 2/3/6 9/13/6 10/15/6
f 13/22/7 9/14/7 17/29/7
f 9/14/7 11/18/7 17/29/7
f 6/9/8 11/17/8 9/13/8
f 4/6/9 10/15/9 12/19/9
f 8/12/10 12/19/10 11/17/10
f 17/30/15 21/41/15 20/38/15
f 16/28/12 12/20/12 19/35/12
f 12/20/12 10/16/12 19/35/12
f 15/26/13 11/18/13 18/32/13
f 11/18/13 12/20/13 18/32/13
f 14/24/14 10/16/14 20/39/14
f 10/16/14 9/14/14 20/39/14
f 20/40/16 21/42/16 19/36/16
f 19/37/17 21/43/17 18/33/17
f 18/34/18 21/44/18 17/31/18
