# Blender 3.5.0
# www.blender.org
mtllib Head.mtl
o 立方体
v -0.581237 -0.384447 0.581237
v -0.581237 -0.101995 0.581237
v -0.581237 -0.384447 -0.581237
v -0.581237 -0.101995 -0.581237
v 0.581237 -0.384447 0.581237
v 0.581237 -0.101995 0.581237
v 0.581237 -0.384447 -0.581237
v 0.581237 -0.101995 -0.581237
v -0.581237 -0.017716 0.581237
v -0.581237 -0.017716 -0.581237
v 0.581237 -0.017716 -0.581237
v 0.581237 -0.017716 0.581237
v -0.581237 0.367386 0.000000
v 0.000000 0.367386 0.581237
v 0.581237 0.367386 0.000000
v 0.000000 0.367386 -0.581237
v 0.000000 0.993584 0.000000
vn -1.0000 -0.0000 -0.0000
vn -0.0000 -0.0000 -1.0000
vn 1.0000 -0.0000 -0.0000
vn -0.0000 -0.0000 1.0000
vn -0.0000 -1.0000 -0.0000
vn 0.4835 0.7297 -0.4835
vn 0.4835 0.7297 0.4835
vn -0.4835 0.7297 0.4835
vn -0.4835 0.7297 -0.4835
vn 0.5912 0.5487 -0.5912
vn 0.5912 0.5487 0.5912
vn -0.5912 0.5487 0.5912
vn -0.5912 0.5487 -0.5912
vt 0.374838 0.304183
vt 0.535771 0.440787
vt 0.256010 0.763140
vt 0.352436 0.292805
vt 0.206958 0.471364
vt 0.299783 0.729988
vt 0.387277 0.284388
vt 0.535771 0.130533
vt 0.293424 0.803280
vt 0.371809 0.270758
vt 0.206958 0.110083
vt 0.337197 0.770128
vt 0.933311 0.916259
vt 0.217893 0.766810
vt 0.933311 0.527097
vt 0.297084 0.694609
vt 0.544150 0.527097
vt 0.375314 0.766458
vt 0.544150 0.916259
vt 0.296123 0.838659
vt 0.159047 0.622738
vt 0.816814 0.721678
vt 0.159047 0.909395
vt 0.738730 0.799762
vt 0.434159 0.910529
vt 0.660646 0.721678
vt 0.434159 0.623873
vt 0.738730 0.643594
vt 0.738730 0.721678
s 0
usemtl マテリアル
f 2/2/1 3/4/1 1/1/1
f 4/5/2 7/10/2 3/4/2
f 8/11/3 5/7/3 7/10/3
f 6/8/4 1/1/4 5/7/4
f 7/10/5 1/1/5 3/4/5
f 12/20/4 14/23/4 9/14/4
f 16/28/6 15/26/6 11/17/6
f 10/16/2 16/27/2 11/18/2
f 11/18/3 15/25/3 12/20/3
f 9/14/1 13/21/1 10/16/1
f 15/26/7 14/24/7 12/19/7
f 14/24/8 13/22/8 9/13/8
f 13/22/9 16/28/9 10/15/9
f 2/2/1 4/5/1 3/4/1
f 4/5/2 8/11/2 7/10/2
f 8/11/3 6/8/3 5/7/3
f 6/8/4 2/2/4 1/1/4
f 7/10/5 5/7/5 1/1/5
f 9/14/4 2/3/4 6/9/4
f 6/9/4 12/20/4 9/14/4
f 16/28/10 17/29/10 15/26/10
f 11/18/2 8/12/2 4/6/2
f 4/6/2 10/16/2 11/18/2
f 12/20/3 6/9/3 8/12/3
f 8/12/3 11/18/3 12/20/3
f 10/16/1 4/6/1 2/3/1
f 2/3/1 9/14/1 10/16/1
f 15/26/11 17/29/11 14/24/11
f 14/24/12 17/29/12 13/22/12
f 13/22/13 17/29/13 16/28/13
